# xmcd
#
# Track frame offsets:
#  150
#  20421
#  34930
#  53152
#  70604
#  81277
#  99836
#  117053
#  140727
#  156937
#  175694
#  196055
#
# Disc length: 2857 seconds
#
# Revision: 0
# Processed by: cddbd v1.5.1PL2 Copyright (c) Steve Scherf et al.
# Submitted via: Collectorz.com_Music_Collector 6.9
#
DISCID=940b270c
DTITLE=Collin Raye - Fearless
DYEAR=2005
DGENRE=Country
TTITLE0=Just Because
TTITLE1=You've Heard That One Before
TTITLE2=Fearless
TTITLE3=Young As We're Ever Going To Be
TTITLE4=Lady
TTITLE5=Makin' Up Time
TTITLE6=Too Hot To Sleep
TTITLE7=Falling In Love Again
TTITLE8=Something To Say
TTITLE9=Forever Starts Right Now
TTITLE10=My Way
TTITLE11=House Of The Rising Sun
EXTD=
EXTT0=
EXTT1=
EXTT2=
EXTT3=
EXTT4=
EXTT5=
EXTT6=
EXTT7=
EXTT8=
EXTT9=
EXTT10=
EXTT11=
PLAYORDER=
